<svg xmlns="http://www.w3.org/2000/svg" viewBox="0 0 1200 630" fill="none">
  <rect width="1200" height="630" fill="#050509"/>
  <defs>
    <radialGradient id="glow" cx="50%" cy="46%" r="55%">
      <stop offset="0%" stop-color="#7C5CFF" stop-opacity="0.35"/>
      <stop offset="45%" stop-color="#3E4FE0" stop-opacity="0.12"/>
      <stop offset="100%" stop-color="#050509" stop-opacity="0"/>
    </radialGradient>
  </defs>
  <rect width="1200" height="630" fill="url(#glow)"/>

  <g transform="translate(870,300)">
    <circle r="150" stroke="#7C5CFF" stroke-opacity="0.35" stroke-width="1"/>
    <circle r="105" stroke="#3E4FE0" stroke-opacity="0.3" stroke-width="1"/>
    <circle cx="0" cy="-150" r="5" fill="#5FE3D6"/>
    <circle cx="130" cy="-70" r="4" fill="#9B82FF"/>
    <circle cx="140" cy="90" r="4.5" fill="#7C5CFF"/>
    <circle cx="-20" cy="150" r="4" fill="#3E4FE0"/>
    <circle cx="-140" cy="40" r="4" fill="#9B82FF"/>
    <circle cx="-90" cy="-120" r="3.5" fill="#5FE3D6"/>
    <line x1="0" y1="-150" x2="130" y2="-70" stroke="#5FE3D6" stroke-opacity="0.4"/>
    <line x1="130" y1="-70" x2="140" y2="90" stroke="#7C5CFF" stroke-opacity="0.4"/>
    <line x1="140" y1="90" x2="-20" y2="150" stroke="#9B82FF" stroke-opacity="0.4"/>
    <line x1="-20" y1="150" x2="-140" y2="40" stroke="#3E4FE0" stroke-opacity="0.4"/>
    <line x1="-140" y1="40" x2="-90" y2="-120" stroke="#9B82FF" stroke-opacity="0.4"/>
    <line x1="-90" y1="-120" x2="0" y2="-150" stroke="#5FE3D6" stroke-opacity="0.4"/>
    <circle r="14" fill="#7C5CFF"/>
  </g>

  <text x="100" y="270" font-family="Arial, sans-serif" font-size="30" letter-spacing="10" fill="#9592A8">INOVIXX</text>
  <text x="96" y="340" font-family="Arial, sans-serif" font-size="58" font-weight="700" fill="#F4F3F8">Building intelligence</text>
  <text x="96" y="405" font-family="Arial, sans-serif" font-size="58" font-weight="700" fill="#F4F3F8">for what&#8217;s next.</text>
</svg>
